# xmcd
#
# Track frame offsets:
#	150
#	11326
#	26029
#	37955
#	57877
#	71300
#	86374
#	98899
#	117656
#	132884
#	145550
#	172591
#	184216
#	196329
#	209265
#	222214
#	235975
#	246849
#
# Disc length: 3464
#
# Revision: 1
# Processed by: cddbd v1.5.1PL0 Copyright (c) Steve Scherf et al.
# Submitted via: dBpowerAMP V4.0
# Normalized: r0:TSWAP
#
DISCID=ef0d8612
DTITLE=Various Artist - Soul Patrol Vol 2
DYEAR=1900
DGENRE=R&B
TTITLE0=Millie Jackson - My Man A Sweet Man
TTITLE1=Mark IV with Roy C. - Honey I Still Love You
TTITLE2=Denise LaSalle - Trapped By A Thing Called Love
TTITLE3=Chuck Willis - Stoop Down Baby
TTITLE4=Z.Z. Hill - The Choking Kind
TTITLE5=William DeVaughn - Be Thankful For What You Got
TTITLE6=Joe Simon - Nine Pound Steel
TTITLE7=Little Richard - I Don't What You've Got (But It's Got Me)
TTITLE8=Toussaint McCall - Nobody Takes The Place Of You
TTITLE9=Jim Gilstrap - Swing Your Daddy
TTITLE10=Clarence Carter - (Working On A) Love Building
TTITLE11=Freddie North - (Friend Don't Take Her) She's All I Got
TTITLE12=Jerry Butler and The Impressions - For Your Precious Love
TTITLE13=Lee Dorsey - Ride Your Pony
TTITLE14=Johnny Adams - Release Me
TTITLE15=The Winstons - Color Him Father
TTITLE16=Gene Chandler - Duke Of Earl
TTITLE17=Birdlegs and Pauline - Spring
EXTD=
EXTT0=
EXTT1=
EXTT2=
EXTT3=
EXTT4=
EXTT5=
EXTT6=
EXTT7=
EXTT8=
EXTT9=
EXTT10=
EXTT11=
EXTT12=
EXTT13=
EXTT14=
EXTT15=
EXTT16=
EXTT17=
PLAYORDER=
